<svg xmlns="http://www.w3.org/2000/svg" viewBox="0 0 1200 760" role="img" aria-labelledby="title desc">
  <title id="title">Purewealth stitched dashboard thumbnail</title>
  <desc id="desc">A dark financial dashboard rendered as embroidered indigo and metallic thread.</desc>
  <defs>
    <radialGradient id="glow" cx=".25" cy=".15" r=".9">
      <stop offset="0" stop-color="#43200f"/>
      <stop offset=".55" stop-color="#12131d"/>
      <stop offset="1" stop-color="#08080a"/>
    </radialGradient>
    <pattern id="grain" width="18" height="18" patternUnits="userSpaceOnUse">
      <path d="M0 4h18M0 12h18M6 0v18M14 0v18" stroke="#ffffff" stroke-opacity=".035" stroke-width="1"/>
    </pattern>
  </defs>
  <rect width="1200" height="760" fill="url(#glow)"/>
  <rect width="1200" height="760" fill="url(#grain)"/>
  <rect x="112" y="138" width="976" height="506" rx="18" fill="#111118" stroke="#d2d0c8" stroke-opacity=".28" stroke-width="3" stroke-dasharray="18 14"/>
  <rect x="162" y="198" width="280" height="156" rx="10" fill="#191925" stroke="#d96f2c" stroke-opacity=".55" stroke-width="3"/>
  <rect x="484" y="198" width="444" height="156" rx="10" fill="#111118" stroke="#d2d0c8" stroke-opacity=".18" stroke-width="2" stroke-dasharray="14 12"/>
  <path d="M526 316l52-48 64 32 76-78 70 52 96-96" fill="none" stroke="#d96f2c" stroke-width="16" stroke-linecap="round" stroke-linejoin="round"/>
  <path d="M526 338l52-48 64 32 76-78 70 52 96-96" fill="none" stroke="#d2d0c8" stroke-width="4" stroke-linecap="round" stroke-dasharray="12 10"/>
  <rect x="162" y="406" width="766" height="38" rx="8" fill="#1d1d28"/>
  <rect x="162" y="472" width="626" height="38" rx="8" fill="#1d1d28"/>
  <rect x="162" y="538" width="830" height="38" rx="8" fill="#1d1d28"/>
  <path d="M190 312v-72M250 312v-30M310 312v-94M370 312v-54" stroke="#d96f2c" stroke-width="20" stroke-linecap="round"/>
  <circle cx="996" cy="276" r="64" fill="none" stroke="#d96f2c" stroke-width="18" stroke-dasharray="150 80"/>
  <circle cx="996" cy="276" r="38" fill="none" stroke="#d2d0c8" stroke-width="4" stroke-dasharray="12 10"/>
  <text x="112" y="92" fill="#e8e7ef" font-family="Arial, sans-serif" font-size="42" font-weight="800">Purewealth</text>
  <text x="112" y="688" fill="#ffb56b" font-family="Arial, sans-serif" font-size="18" font-weight="700" letter-spacing="6">SECURE DASHBOARD</text>
</svg>

