<svg xmlns="http://www.w3.org/2000/svg" viewBox="0 0 960 540" role="img" aria-labelledby="title desc">
  <title id="title">Skywing Real Estate website preview</title>
  <desc id="desc">A dark real estate website thumbnail with flowing blue glass shapes and property cards.</desc>
  <defs>
    <linearGradient id="bg" x1="0" x2="1" y1="0" y2="1">
      <stop stop-color="#050914"/>
      <stop offset=".58" stop-color="#10233f"/>
      <stop offset="1" stop-color="#020307"/>
    </linearGradient>
    <linearGradient id="aqua" x1="0" x2="1">
      <stop stop-color="#b7f7ff"/>
      <stop offset=".52" stop-color="#7bdff2"/>
      <stop offset="1" stop-color="#6f83ff"/>
    </linearGradient>
  </defs>
  <rect width="960" height="540" rx="34" fill="url(#bg)"/>
  <path d="M-45 326c138-99 227-95 340-36 143 75 252 49 384-80 93-91 188-120 326-87v417H-45V326z" fill="#0f6b5f" opacity=".34"/>
  <path d="M-16 362c163-108 270-95 390-34 135 68 235 43 358-64 78-68 158-98 271-82" fill="none" stroke="#7bdff2" stroke-width="26" stroke-linecap="round" opacity=".24"/>
  <rect x="52" y="44" width="856" height="54" rx="18" fill="#ffffff" opacity=".08"/>
  <circle cx="86" cy="71" r="14" fill="url(#aqua)"/>
  <rect x="120" y="61" width="160" height="20" rx="10" fill="#f6fbff" opacity=".78"/>
  <rect x="695" y="60" width="58" height="18" rx="9" fill="#f6fbff" opacity=".42"/>
  <rect x="770" y="60" width="58" height="18" rx="9" fill="#f6fbff" opacity=".42"/>
  <rect x="845" y="56" width="42" height="26" rx="13" fill="url(#aqua)"/>
  <text x="72" y="202" fill="#f6fbff" font-family="Arial, sans-serif" font-size="56" font-weight="800">Skywing</text>
  <text x="72" y="264" fill="#b7f7ff" font-family="Arial, sans-serif" font-size="34" font-weight="700">Real Estate</text>
  <rect x="72" y="302" width="245" height="48" rx="24" fill="url(#aqua)"/>
  <rect x="72" y="398" width="236" height="88" rx="18" fill="#ffffff" opacity=".12"/>
  <rect x="342" y="386" width="236" height="100" rx="18" fill="#ffffff" opacity=".16"/>
  <rect x="612" y="368" width="236" height="118" rx="18" fill="#ffffff" opacity=".20"/>
  <rect x="96" y="421" width="96" height="14" rx="7" fill="#f6fbff" opacity=".8"/>
  <rect x="366" y="412" width="104" height="14" rx="7" fill="#f6fbff" opacity=".8"/>
  <rect x="636" y="398" width="116" height="14" rx="7" fill="#f6fbff" opacity=".8"/>
</svg>
